<?xml version="1.0" encoding="UTF-8"?>
<svg xmlns="http://www.w3.org/2000/svg" viewBox="0 0 2000 2000">
  <defs>
    <style>
      .cls-1 {
        mix-blend-mode: multiply;
        opacity: .25;
      }

      .cls-2 {
        fill: #231f20;
      }

      .cls-3 {
        isolation: isolate;
      }

      .cls-4 {
        fill: #ec1c24;
      }
    </style>
  </defs>
  <g class="cls-3">
    <g id="Layer_1" data-name="Layer 1">
      <g>
        <g class="cls-1">
          <path class="cls-2" d="M847,964.35c13.08-31.23,23.46-51.92,31.25-62.28,6.07-8.21,12.72-12.17,19.96-11.92l133.08,4.67c4.02.14,7.95.79,11.8,1.95,3.83,1.16,7.75,3.13,11.76,5.91,4,2.78,7.19,5.94,9.59,9.47,6.32,9.13,7.05,20.02,2.18,32.75-1.16,3.04-2.79,6.38-4.89,10.02-4.44,7.92-11.26,15.59-20.49,23.01-9.3,7.48-23.12,15.98-41.58,25.56-2.84,1.68-4.43,2.94-4.76,3.78-.49,1.26-.54,2.63-.14,4.09l11.24,16.93c1.68,2.5,3.32,6.05,4.93,10.64,2.31,5.84,4.18,12.19,5.61,19.08,1.11,4.59,1.62,8.87,1.53,12.85.03,18.04-1.45,31-4.46,38.88-2.52,6.62-5.73,10.01-9.62,10.16l-68.7,2.58-3.81-.83c-1.19-.82-1.62-2.75-1.3-5.79.31-3.04,1.47-12.8,3.44-29.26l.28-3.56c-.07-16.36-.54-27.21-1.44-32.57-.9-5.36-2.59-9.04-5.08-11.06-2.5-2.01-5.27-3.01-8.34-2.98-3.33.03-6.79.83-10.36,2.38-3.58,1.56-6.95,3.98-10.08,7.28-3.15,3.3-5.83,7.7-8.04,13.18-1.07,2.63-1.99,5.55-2.75,8.72-.77,3.18-1.52,5.98-2.23,8.4l-2.87,12.87-.55,2.31c-2.07,15.41-3.86,25.03-5.39,28.82-1.17,2.91-2.68,4.39-4.53,4.46l-85.13,3.2c-2.79.1-4.1-1.37-3.91-4.44.18-3.06,2.33-9.52,6.45-19.36l.57-1.37,15.44-40.79,16.63-42.62,8.62-19.6c3.14-7.49,5.99-13.98,8.56-19.47,2.56-5.47,5.07-10.83,7.53-16.06ZM923.62,967.18l-6.61,14.41c-2.09,5.14.96,7.74,9.13,7.77,2.79.01,5.51-.4,8.13-1.25,4.89-1.47,9.23-3.15,13.01-5.04,11.61-5.22,20.6-10.43,27.01-15.63,6.38-5.18,10.59-10.37,12.65-15.58.99-2.5,1.4-5.1,1.25-7.83-.47-4.4-2.11-7.89-4.91-10.46-2.81-2.58-6.3-3.92-10.48-4.01-9.89-.23-17.77,1.12-23.61,4.05-5.87,2.95-11.02,8.31-15.44,16.1l-10.14,17.47Z"/>
          <path class="cls-2" d="M1120.46,915.61c4.45-7.65,7.92-12.41,10.44-14.32,2.5-1.9,6.96-2.74,13.35-2.51l52.8,1.85c2.54.09,3.08,2.15,1.62,6.18-1.04,2.88-3.91,7.51-8.59,13.91-4.71,6.42-9.09,13.12-13.14,20.09-6,10.51-11.38,22.27-16.12,35.28-2.52,6.93-5.05,13.71-7.59,20.37-2.55,6.67-4.94,13.11-7.2,19.31-1.83,5.01-3.34,9.18-4.55,12.49-1.21,3.32-2.73,8.71-4.56,16.16l-5.73,28.52-1.11,4.88-1.77,8.54-2.33,13.75-1.22,7.96-.45,2.15c-.59,3.48-1.9,5.25-3.93,5.33l-71.39,2.68c-1.42.05-2.31-1.16-2.66-3.65-.35-2.49.03-7.08,1.14-13.79l1.9-7.86,8.39-27.89,1.76-5.61c4.37-11.62,9.39-25.42,15.05-41.36,5.62-15.85,8.46-23.86,8.54-24.06l5.39-12.49,8.44-19.68c2.87-7.63,5.66-14.14,8.37-19.53,3.3-5.76,5.47-9.73,6.53-11.91l8.61-14.79Z"/>
          <path class="cls-2" d="M1336.63,1038.55l4.57-5.95c2.21,2.04,3.54,4.82,4,8.37.46,3.55-.15,7.86-1.82,12.94-.93,2.83-2.25,5.95-3.95,9.36-5.93,12.75-15.16,23.58-27.75,32.52-12.72,9.03-28,15.16-45.91,18.36-2.39.48-5.57.8-9.58.96-4.02.16-7.41.39-10.16.69-18.56.73-32.6-1.23-41.98-5.92-9.44-4.71-16.79-12.95-22.03-24.72l-2.96-7.97c-4.4-13.62-4.33-30.12.21-49.4,1.76-7.33,3.12-12.47,4.08-15.44.95-2.96,1.75-5.33,2.39-7.1,8.65-24.15,21.35-44.42,37.97-60.83,15.52-15.44,31.24-26.68,47.16-33.8,15.73-7.02,33.11-10.16,52.07-9.47,3.49.13,6.83.25,10.01.37s6.3.51,9.38,1.17c9.37,2,16.26,4.49,20.71,7.49,4.43,2.99,7.33,6.97,8.71,11.95,1.11,4.06.89,8.45-.67,13.17-2.05,6.19-5.9,11.8-11.57,16.85-5.7,5.07-12.68,8.76-20.98,11.05l-5.29,1.04c-4.06.5-7.16.74-9.3.71-2.92-.04-4.48-.81-4.66-2.31-.18-1.5.68-5.04,2.56-10.62.94-2.79.4-5.08-1.64-6.9-2.04-1.82-5.21-2.78-9.52-2.87-3.34-.07-6.56.33-9.64,1.2-7.58,1.73-15.09,6.21-22.54,13.47-7.49,7.31-14.58,17.63-21.26,30.99-2.15,4.41-3.96,8.73-5.43,12.96-.67,1.93-1.17,3.37-1.51,4.33-3.36,9.66-4.89,18.07-4.59,25.22.29,7.16,1.87,13.43,4.73,18.81,5.14,8.81,12.86,14.16,23.12,16.05,4.32.87,8.2,1.26,11.62,1.18,18.38-.41,35.51-9.77,51.41-27.91Z"/>
          <path class="cls-2" d="M1526.33,1054.49c-5.16,17.31-10.14,30.04-14.91,38.14-3.37,5.61-6.08,8.45-8.14,8.53l-51.99,1.95c-2.14.08-2.79-1.25-1.94-4,.73-2.38,2.73-5.97,5.97-10.78,2.2-3.13,3.93-5.75,5.19-7.86,1.26-2.1,2.75-4.8,4.46-8.08l2.48-4.64,6.02-11.95c1.19-2.17,2.24-4.19,3.17-6.08.93-1.89,1.75-3.99,2.46-6.32,1.39-3.4,1.25-6.2-.41-8.4-1.67-2.2-4.6-3.29-8.8-3.24-1.93.02-4.36.36-7.28,1.02-2.94.66-6.27,1.6-10,2.81-3.75,1.22-6.72,2.2-8.91,2.95-7.61,3.18-13.24,6.25-16.88,9.21-3.65,2.97-6.23,6.84-7.73,11.61-1.45,4.59-1.87,11.36-1.24,20.3l1,5.46c1.29,4.53,2.1,7.98,2.44,10.35.34,2.37.24,4.11-.28,5.22-.76,2.41-2.23,3.65-4.43,3.74l-56.4,2.12c-1.34.05-2.39-.8-3.14-2.55-.76-1.75-1.26-5.15-1.52-10.2l.77-14.62c.61-7.12,2.54-15.65,5.78-25.6,1.46-4.49,3.45-9.72,5.96-15.7,2.51-5.96,5.1-11.76,7.79-17.42,2.68-5.64,4.9-10.02,6.66-13.15,1.76-3.12,3.06-5.42,3.92-6.89,5.32-8.96,10.12-16.47,14.41-22.55,4.26-6.05,8.58-11.57,12.94-16.58,11.58-13.32,23.29-24.45,35.13-33.41,5-3.94,10.31-7.5,15.93-10.69,18.16-10.81,29.62-16.06,34.57-15.87,4.42.17,10.93,4.33,19.51,12.43l8.4,9.86c8.74,12.66,13.43,28.91,14.1,48.83.67,19.95-3.01,43.38-11.07,70.44l-3.96,11.61ZM1445.03,995.89c.37.54,3.4.95,9.09,1.23,5.66.28,11.56.43,17.7.44h1.83c9.91.02,15.74-2.88,17.53-8.69.7-2.28.9-5.45.6-9.51l-.79-10.04-.11-1.32-2.05-8.47c-.82-4.06-2.87-6.12-6.16-6.18-1.91-.04-4.13.94-6.67,2.92-2.55,1.99-5.94,5.25-10.17,9.8l-10.02,10.82-6.23,8.79c-2.5,3.39-4.02,5.98-4.59,7.77-.34,1.08-.33,1.88.04,2.42Z"/>
        </g>
        <g class="cls-1">
          <path class="cls-2" d="M609.01,1153.32c-3.13,0-6.34-.18-9.53-.54-24.05-3.4-40.71-13.26-49.62-29.33-8.67-15.62-11.69-34.66-8.98-56.57.29-2.63.66-5.36,1.09-8.06,3-18.83,9.17-38.95,18.32-59.8,9.13-20.8,20.38-40.26,33.44-57.85,13.14-17.69,26.29-30.59,39.08-38.34,13.18-7.5,24.86-11.28,34.79-11.28,4.21,0,10.05,1.4,17.83,4.28,9.08,3.36,14.4,15.02,16.27,35.66.11,1.39.09,2.54-.07,3.52-.29,1.84-1.09,3.42-2.38,4.69-1.32,1.29-3.04,2.02-5.14,2.19h-.26s-4.81,0-4.81,0c-13.07.78-25.12,7.19-35.83,19.06-11.05,12.25-20.69,27.27-28.63,44.67-8,17.52-14.34,34.78-18.84,51.32-2.72,10.06-4.69,18.88-5.85,26.19-.72,4.54-1.13,8.61-1.21,12.09-.34,16.86,2.2,22.52,3.75,24.39.57.7,1.15,1.04,1.92,1.15l.15.02.15.03c.24.06.47.08.71.08,3.78,0,10.69-2.71,22.15-15.59,7.35-8.23,16.23-20.82,26.39-37.43,10.18-16.65,20.16-35.49,29.66-55.99,9.47-20.43,16.92-40.73,22.16-60.34,1.73-6.2,3.05-12.17,3.95-17.76,1.9-11.95,1.84-24.03-.2-35.91-1.84-10.71-8.65-17.97-20.81-22.19-5.33-1.39-10.78-2.09-16.19-2.09-13.1,0-28.38,5.09-45.41,15.12-17.17,10.11-34.41,26.32-51.24,48.17-16.86,21.88-29.73,45.58-38.26,70.42-2.99,8.74-5.16,17.31-6.46,25.46-2.35,14.73-1.96,28.78,1.15,41.76.27.96.7,1.86,1.24,2.51l.15.19.13.2c.93,1.41,1.51,2.7,1.77,3.95l.15.71-.16,1.03c-.23,1.46-1.11,2.62-2.67,3.55-.75.45-2.14,1.06-6.23,1.75-3.63.6-7.15.9-10.47.9-14.02,0-25.21-5.5-33.26-16.35-7.86-10.59-11.13-25.93-9.71-45.59.23-3.85.66-7.8,1.28-11.69,2.5-15.65,8.39-33.45,17.53-52.89,9.14-19.46,23.02-38.88,41.24-57.72,18.26-18.87,40.56-33.91,66.28-44.7,20.49-8.51,43.46-12.82,68.28-12.82,6.46,0,13.17.29,19.96.87,26.88,3.23,46.81,13.39,59.35,30.21,12.38,16.61,18.88,37.26,19.32,61.38.17,10.99-.67,22.34-2.49,33.76-2.09,13.13-6.58,29.63-13.35,49.05-6.8,19.51-18.13,40.4-33.68,62.09-15.6,21.76-33.63,39.22-53.58,51.88-17.32,10.94-35.61,16.49-54.35,16.49Z"/>
        </g>
        <g>
          <path class="cls-4" d="M843.47,955.59c17.38-29.13,30.62-48.43,39.83-58.1,7.2-7.66,14.4-11.35,21.6-11.12l132.43,4.36c4,.13,7.84.74,11.53,1.82,3.67,1.08,7.32,2.92,10.95,5.52,3.61,2.59,6.37,5.54,8.29,8.83,5.06,8.52,4.29,18.68-2.33,30.55-1.58,2.83-3.67,5.95-6.27,9.35-5.53,7.39-13.41,14.54-23.67,21.47-10.33,6.98-25.32,14.91-45.1,23.84-3.08,1.57-4.84,2.74-5.28,3.52-.67,1.18-.9,2.45-.7,3.82l8.91,15.8c1.34,2.33,2.49,5.64,3.46,9.92,1.51,5.44,2.5,11.37,2.98,17.8.48,4.28.4,8.28-.24,11.99-2.46,16.83-5.73,28.92-9.81,36.27-3.44,6.18-7.11,9.34-11.02,9.47l-69.06,2.41-3.7-.77c-1.07-.76-1.24-2.56-.5-5.4.73-2.83,3.23-11.94,7.47-27.29l.77-3.32c2.19-15.26,3.21-25.38,3.05-30.38-.16-5-1.35-8.43-3.55-10.32-2.22-1.88-4.86-2.81-7.93-2.78-3.34.03-6.9.77-10.69,2.22-3.8,1.45-7.49,3.71-11.08,6.79-3.6,3.08-6.89,7.18-9.86,12.29-1.43,2.46-2.75,5.17-3.95,8.13-1.21,2.97-2.34,5.58-3.39,7.84l-4.64,12-.86,2.16c-4.19,14.38-7.31,23.35-9.36,26.88-1.57,2.71-3.29,4.1-5.15,4.16l-85.57,2.98c-2.81.1-3.91-1.28-3.3-4.14.6-2.86,3.65-8.88,9.12-18.06l.76-1.28,21.06-38.05,22.5-39.75,11.32-18.28c4.17-6.99,7.92-13.04,11.24-18.16,3.31-5.1,6.56-10.1,9.75-14.98ZM919.7,958.23l-8.6,13.44c-2.8,4.8-.1,7.22,8.06,7.25,2.79.01,5.56-.38,8.3-1.16,5.09-1.37,9.67-2.94,13.71-4.71,12.33-4.87,22.04-9.73,29.17-14.58,7.09-4.83,12.02-9.67,14.8-14.53,1.33-2.33,2.11-4.76,2.33-7.3.14-4.11-1.02-7.36-3.46-9.76-2.45-2.4-5.76-3.65-9.93-3.74-9.86-.22-17.92,1.04-24.17,3.78-6.28,2.75-12.16,7.75-17.66,15.02l-12.55,16.3Z"/>
          <path class="cls-4" d="M1123.65,910.13c5.5-7.13,9.63-11.58,12.41-13.36,2.77-1.77,7.34-2.55,13.7-2.34l52.55,1.73c2.53.08,2.79,2,.77,5.76-1.44,2.69-4.94,7.01-10.51,12.97-5.59,5.99-10.9,12.24-15.91,18.74-7.45,9.8-14.44,20.77-20.98,32.9-3.48,6.46-6.94,12.79-10.39,19-3.47,6.23-6.75,12.23-9.87,18.01-2.52,4.67-4.61,8.56-6.28,11.65-1.67,3.1-3.93,8.12-6.79,15.08l-9.66,26.61-1.78,4.55-2.95,7.97-4.22,12.82-2.32,7.42-.74,2c-1.07,3.25-2.63,4.9-4.67,4.97l-71.76,2.5c-1.43.05-2.15-1.09-2.15-3.41-.01-2.32,1.01-6.61,3.04-12.86l2.98-7.33,12.23-26.01,2.54-5.24c5.98-10.84,12.9-23.71,20.75-38.58,7.81-14.79,11.75-22.25,11.86-22.44l7.11-11.65,11.15-18.35c3.92-7.12,7.61-13.19,11.07-18.22,4.1-5.37,6.82-9.07,8.17-11.11l10.65-13.79Z"/>
          <path class="cls-4" d="M1322.87,1024.8l5.39-5.55c1.93,1.9,2.87,4.5,2.85,7.81-.03,3.31-1.23,7.33-3.6,12.07-1.32,2.64-3.07,5.55-5.24,8.74-7.69,11.89-18.41,22-32.23,30.33-13.96,8.42-30.09,14.14-48.44,17.12-2.45.45-5.68.75-9.71.89-4.04.15-7.46.36-10.26.64-18.66.68-32.43-1.15-41.16-5.52-8.79-4.39-15.01-12.08-18.62-23.06l-1.86-7.44c-2.52-12.71-.17-28.09,7.02-46.08,2.77-6.84,4.84-11.64,6.21-14.4,1.36-2.76,2.48-4.97,3.36-6.63,11.98-22.52,27.47-41.44,46.36-56.74,17.65-14.4,34.92-24.89,51.82-31.52,16.7-6.55,34.51-9.48,53.38-8.83,3.47.12,6.79.23,9.96.34,3.16.11,6.23.47,9.22,1.09,9.09,1.86,15.64,4.19,19.68,6.98,4.02,2.79,6.37,6.5,7.07,11.15.55,3.79-.27,7.88-2.48,12.28-2.9,5.77-7.53,11.01-13.89,15.72-6.4,4.73-13.89,8.17-22.5,10.3l-5.44.97c-4.13.47-7.27.69-9.4.66-2.92-.04-4.37-.75-4.34-2.16.02-1.4,1.37-4.71,4.03-9.91,1.33-2.6,1.1-4.74-.68-6.44-1.79-1.69-4.83-2.59-9.12-2.68-3.33-.07-6.6.31-9.8,1.12-7.82,1.61-15.95,5.79-24.39,12.57-8.5,6.82-17.01,16.45-25.53,28.9-2.75,4.11-5.16,8.14-7.21,12.09-.94,1.8-1.64,3.15-2.1,4.04-4.69,9.01-7.38,16.86-8.07,23.53-.69,6.68.02,12.53,2.14,17.54,3.92,8.22,10.91,13.21,20.91,14.97,4.2.81,8.02,1.17,11.46,1.1,18.43-.38,36.85-9.11,55.26-26.03Z"/>
          <path class="cls-4" d="M1510.38,1039.67c-7.55,16.15-14.28,28.02-20.17,35.58-4.14,5.23-7.24,7.88-9.31,7.96l-52.26,1.82c-2.16.08-2.62-1.17-1.39-3.73,1.06-2.22,3.55-5.57,7.46-10.05,2.63-2.92,4.72-5.37,6.28-7.34,1.55-1.96,3.41-4.48,5.57-7.53l3.12-4.33,7.67-11.14c1.49-2.02,2.82-3.91,4.01-5.67,1.19-1.76,2.3-3.73,3.33-5.9,1.86-3.17,2.11-5.78.74-7.84-1.36-2.06-4.15-3.06-8.36-3.02-1.94.02-4.41.34-7.42.95-3.03.62-6.49,1.49-10.39,2.62-3.92,1.14-7.03,2.05-9.32,2.75-8.05,2.97-14.11,5.83-18.15,8.59-4.06,2.77-7.17,6.38-9.33,10.83-2.09,4.29-3.43,10.6-4.04,18.94l.25,5.09c.66,4.23,1,7.45,1.02,9.65.01,2.21-.32,3.83-1,4.87-1.09,2.25-2.73,3.41-4.94,3.48l-56.69,1.98c-1.35.05-2.28-.74-2.79-2.38-.52-1.63-.55-4.81-.11-9.52l2.79-13.64c1.59-6.64,4.7-14.6,9.31-23.87,2.08-4.19,4.79-9.07,8.13-14.64,3.33-5.56,6.72-10.97,10.19-16.25,3.45-5.26,6.28-9.34,8.48-12.27,2.19-2.91,3.81-5.05,4.87-6.43,6.56-8.36,12.39-15.36,17.51-21.03,5.09-5.64,10.17-10.8,15.23-15.47,13.42-12.43,26.66-22.8,39.74-31.17,5.54-3.68,11.34-7,17.4-9.97,19.65-10.08,31.83-14.98,36.75-14.8,4.4.16,10.34,4.03,17.8,11.59l7.04,9.2c7,11.81,9.44,26.97,7.37,45.55-2.08,18.61-8.98,40.46-20.78,65.71l-5.56,10.83ZM1437.15,985.01c.29.5,3.27.89,8.92,1.15,5.62.26,11.5.4,17.64.41h1.83c9.91.02,16.14-2.68,18.73-8.1,1.02-2.13,1.65-5.08,1.91-8.87l.59-9.36.07-1.23-.88-7.9c-.26-3.78-2.03-5.71-5.3-5.76-1.9-.03-4.26.88-7.07,2.72-2.82,1.86-6.66,4.9-11.52,9.14l-11.51,10.1-7.44,8.2c-2.96,3.16-4.85,5.58-5.66,7.25-.49,1-.58,1.76-.29,2.26Z"/>
        </g>
        <path class="cls-4" d="M579.43,1131.86c-3.13,0-6.32-.17-9.46-.5-23.58-3.17-38.88-12.37-45.58-27.36-6.52-14.57-6.91-32.33-1.18-52.77.66-2.45,1.4-5,2.2-7.52,5.6-17.56,14.54-36.33,26.57-55.78,12-19.4,25.93-37.55,41.41-53.96,15.58-16.5,30.5-28.53,44.36-35.76,14.21-7,26.42-10.52,36.34-10.52,4.21,0,9.85,1.3,17.24,3.99,8.62,3.13,12.33,14.01,11.35,33.26-.08,1.3-.26,2.37-.55,3.29-.55,1.72-1.57,3.19-3.03,4.37-1.49,1.2-3.32,1.89-5.44,2.04h-.26s-4.81,0-4.81,0c-13.18.73-26.11,6.71-38.46,17.78-12.74,11.42-24.45,25.44-34.79,41.67-10.42,16.34-19.14,32.44-25.91,47.87-4.1,9.39-7.29,17.61-9.46,24.43-1.35,4.24-2.32,8.03-2.88,11.28-2.66,15.72-.9,21,.39,22.75.48.65,1.01.97,1.77,1.07l.15.02.15.03c.23.05.46.08.7.08,3.78,0,11.07-2.52,24.3-14.54,8.49-7.68,19.1-19.42,31.55-34.91,12.47-15.53,25.05-33.1,37.38-52.22,12.28-19.06,22.54-37.99,30.48-56.28,2.58-5.79,4.73-11.35,6.39-16.56,3.55-11.14,5.15-22.41,4.75-33.49-.36-9.99-6.17-16.76-17.75-20.69-5.14-1.3-10.49-1.95-15.91-1.95-13.1,0-29.08,4.74-47.49,14.1-18.56,9.43-38.03,24.55-57.88,44.93-19.87,20.41-36.01,42.51-47.97,65.69-4.19,8.15-7.55,16.14-9.97,23.75-4.38,13.74-5.93,26.84-4.61,38.95.14.9.45,1.74.89,2.34l.13.18.11.19c.74,1.32,1.14,2.52,1.22,3.68l.05.66-.3.96c-.43,1.36-1.47,2.44-3.16,3.31-.81.42-2.29.99-6.47,1.63-3.71.56-7.27.84-10.59.84-14.02,0-24.46-5.13-31-15.25-6.4-9.88-7.55-24.19-3.42-42.53.76-3.59,1.74-7.27,2.89-10.91,4.65-14.6,13-31.2,24.82-49.33,11.82-18.15,28.37-36.27,49.19-53.84,20.86-17.6,45.24-31.63,72.44-41.7,21.66-7.93,45.23-11.96,70.05-11.96,6.46,0,13.13.27,19.84.81,26.44,3.02,44.97,12.49,55.19,28.18,10.09,15.49,13.74,34.76,10.86,57.25-1.35,10.25-3.75,20.84-7.15,31.49-3.9,12.24-10.67,27.64-20.11,45.75-9.49,18.2-23.7,37.68-42.24,57.92-18.6,20.3-39.03,36.58-60.73,48.39-18.83,10.2-37.88,15.38-56.62,15.38Z"/>
      </g>
    </g>
  </g>
</svg>